<?xml version="1.0" standalone="no"?>
<!DOCTYPE svg PUBLIC "-//W3C//DTD SVG 20010904//EN"
 "http://www.w3.org/TR/2001/REC-SVG-20010904/DTD/svg10.dtd">
<svg version="1.0" xmlns="http://www.w3.org/2000/svg"
 width="512.000000pt" height="512.000000pt" viewBox="0 0 512.000000 512.000000"
 preserveAspectRatio="xMidYMid meet">
<metadata>
Created by potrace 1.16, written by Peter Selinger 2001-2019
</metadata>
<g transform="translate(0.000000,512.000000) scale(0.100000,-0.100000)"
fill="#231d24" stroke="none">
<path d="M1050 3598 c0 -2 -1 -58 -3 -126 l-2 -123 752 -460 c413 -252 756
-459 761 -459 5 0 348 208 762 463 l751 463 0 119 0 120 -1510 3 c-831 1
-1511 1 -1511 0z"/>
<path d="M3655 2930 c-220 -136 -400 -253 -400 -258 0 -10 802 -1025 814
-1029 3 -2 6 343 6 767 0 507 -3 770 -10 769 -5 0 -190 -112 -410 -249z"/>
<path d="M1040 2410 c0 -424 4 -760 9 -760 8 0 824 1021 819 1025 -17 14 -812
495 -819 495 -5 0 -9 -304 -9 -760z"/>
<path d="M2845 2430 c-148 -93 -277 -169 -285 -169 -8 0 -136 74 -284 164
-149 91 -275 164 -281 161 -11 -4 -837 -1039 -843 -1056 -2 -7 508 -10 1408
-10 1126 0 1410 3 1404 13 -10 15 -845 1067 -847 1066 -1 0 -123 -76 -272
-169z"/>
</g>
</svg>
